<?xml version="1.0" standalone="no"?>
<!DOCTYPE svg PUBLIC "-//W3C//DTD SVG 20010904//EN"
 "http://www.w3.org/TR/2001/REC-SVG-20010904/DTD/svg10.dtd">
<svg version="1.0" xmlns="http://www.w3.org/2000/svg"
 width="700.000000pt" height="700.000000pt" viewBox="0 0 700.000000 700.000000"
 preserveAspectRatio="xMidYMid meet">
<metadata>
Created by potrace 1.14, written by Peter Selinger 2001-2017
</metadata>
<g transform="translate(0.000000,700.000000) scale(0.100000,-0.100000)"
fill="#000000" stroke="none">
<path d="M5562 5434 c-124 -62 -324 -330 -527 -704 -204 -377 -381 -793 -635
-1495 -163 -448 -227 -605 -249 -605 -21 0 -41 252 -61 770 -19 490 -42 599
-127 623 -80 23 -127 -19 -208 -187 -136 -283 -267 -659 -450 -1291 -85 -296
-162 -537 -179 -560 -13 -18 -14 -18 -24 1 -15 28 -41 194 -57 363 -59 613
-40 1395 55 2319 11 106 20 194 20 196 0 16 -37 36 -64 36 -50 0 -73 -32 -95
-136 -73 -334 -126 -1335 -101 -1898 24 -550 77 -883 155 -973 28 -33 37 -37
82 -37 42 -1 57 4 78 24 47 43 54 65 225 700 76 284 235 773 320 985 57 143
140 317 169 354 18 24 19 24 29 4 16 -28 30 -229 42 -578 19 -547 49 -761 115
-815 10 -8 37 -15 61 -15 88 0 107 36 276 535 236 699 379 1054 594 1480 128
256 302 541 411 675 57 70 158 165 198 186 42 23 44 23 64 5 74 -67 87 -345
50 -1091 -49 -982 -31 -2096 41 -2519 21 -124 41 -161 86 -161 33 0 33 -4 10
130 -53 311 -50 1207 10 2290 22 400 30 988 15 1098 -22 166 -69 269 -136 301
-51 25 -132 21 -193 -10z"/>
<path d="M2345 4594 c-384 -143 -731 -228 -940 -228 -103 -1 -127 3 -169 22
-54 25 -81 28 -92 10 -13 -21 43 -56 115 -72 90 -21 259 -21 376 0 121 21 324
74 475 123 68 22 125 39 126 38 2 -1 -38 -47 -88 -102 -295 -326 -581 -724
-607 -846 -27 -123 56 -156 319 -125 238 28 330 20 456 -40 131 -62 203 -158
226 -301 66 -393 -512 -1061 -958 -1108 -120 -13 -271 30 -342 98 -53 51 -66
83 -66 172 -1 80 -1 80 -28 83 -35 4 -48 -25 -48 -110 0 -148 113 -244 330
-284 285 -51 569 61 859 341 172 166 313 384 358 555 24 90 23 238 -1 310 -55
163 -191 278 -393 331 -62 16 -109 20 -228 20 -82 0 -181 -5 -220 -10 -38 -6
-85 -11 -102 -11 -30 0 -33 3 -33 30 0 60 74 176 257 406 146 181 366 427 525
587 65 65 118 122 118 127 0 15 -36 30 -72 30 -18 -1 -87 -21 -153 -46z"/>
</g>
</svg>
