<svg width="251" height="271" viewBox="0 0 251 271" fill="none" xmlns="http://www.w3.org/2000/svg">
    <path d="M11.1982 210.351L28.4118 199.331L33.5007 206.269C34.815 208.061 35.4464 209.694 35.3948 211.168C35.3545 212.657 34.6294 213.853 33.2196 214.755C32.2851 215.354 31.3465 215.651 30.4039 215.646C29.4724 215.657 28.5844 215.416 27.7398 214.921C26.9064 214.442 26.1864 213.788 25.5798 212.961L26.4564 212.974C27.2091 214 27.6829 214.991 27.8778 215.947C28.1004 216.907 28.0272 217.81 27.6584 218.653C27.306 219.487 26.6379 220.218 25.6543 220.848C24.1952 221.782 22.6934 222.001 21.1486 221.504C19.6151 221.023 18.107 219.771 16.6241 217.75L11.1982 210.351ZM13.9452 211.091L18.1073 216.766C19.1408 218.175 20.1869 219.093 21.2456 219.518C22.3206 219.932 23.4237 219.778 24.5549 219.053C25.6697 218.34 26.2059 217.445 26.1637 216.369C26.1379 215.283 25.6082 214.035 24.5747 212.626L20.2778 206.767L21.7778 205.806L25.6703 211.114C26.6139 212.4 27.6064 213.228 28.6478 213.597C29.7004 213.981 30.7431 213.842 31.7759 213.181C32.8251 212.509 33.3398 211.651 33.32 210.606C33.3279 209.565 32.86 208.401 31.9164 207.115L28.1587 201.991L13.9452 211.091Z" fill="#1F1F1F"/>
    <path d="M38.2325 241.101L58.2567 230.636L60.0125 231.837L55.3818 252.833L53.5057 251.55L58.0046 231.947L58.7261 232.441L40.0845 242.368L38.2325 241.101ZM44.5563 238.972L46.1421 237.986L55.9314 244.682L55.4039 246.393L44.5563 238.972Z" fill="#1F1F1F"/>
    <path d="M77.2401 262.818L83.579 244.243L91.0202 246.459C92.7054 246.961 94.0663 247.649 95.103 248.523C96.1458 249.38 96.826 250.382 97.1438 251.529C97.4865 252.664 97.4285 253.903 96.9697 255.248C96.523 256.557 95.8052 257.591 94.8165 258.348C93.8528 259.094 92.6775 259.543 91.2906 259.695C89.9098 259.83 88.3768 259.646 86.6917 259.144L80.4149 257.274L81.6601 256.651L79.3418 263.444L77.2401 262.818ZM90.816 266.862L88.0039 258.599L90.276 259.276L93.1166 267.548L90.816 266.862ZM81.6057 256.81L80.9854 255.602L87.2054 257.455C89.1935 258.047 90.8376 258.089 92.1377 257.58C93.4568 257.076 94.3669 256.09 94.868 254.622C95.3751 253.136 95.2468 251.831 94.4831 250.707C93.7384 249.588 92.372 248.733 90.3839 248.141L84.1639 246.288L85.4181 245.638L81.6057 256.81Z" fill="#1F1F1F"/>
    <path d="M118.488 271L117.875 251.512L126.874 251.264C129.198 251.201 131.009 251.587 132.308 252.425C133.627 253.262 134.311 254.478 134.362 256.074C134.395 257.132 134.155 258.031 133.641 258.769C133.147 259.507 132.45 260.074 131.547 260.471C130.665 260.866 129.688 261.079 128.615 261.109L129.101 260.426C130.432 260.39 131.58 260.553 132.546 260.917C133.531 261.261 134.303 261.807 134.864 262.553C135.423 263.281 135.721 264.201 135.756 265.315C135.808 266.967 135.193 268.265 133.91 269.211C132.648 270.156 130.705 270.664 128.083 270.736L118.488 271ZM120.64 269.241L128 269.039C129.827 268.989 131.219 268.663 132.174 268.06C133.129 267.44 133.586 266.489 133.546 265.208C133.506 263.946 132.99 263.041 131.999 262.492C131.007 261.925 129.597 261.667 127.769 261.717L120.171 261.926L120.118 260.227L127.001 260.038C128.669 259.992 129.951 259.66 130.846 259.041C131.761 258.421 132.2 257.527 132.164 256.358C132.126 255.17 131.632 254.301 130.68 253.751C129.747 253.182 128.447 252.921 126.778 252.967L120.133 253.149L120.64 269.241Z" fill="#1F1F1F"/>
    <path d="M161.599 254.541L171.893 250.839L172.567 252.477L162.274 256.179L161.599 254.541ZM165.281 262.857L176.993 258.645L177.678 260.308L163.907 265.261L156.411 247.066L169.765 242.263L170.45 243.927L159.155 247.989L165.281 262.857Z" fill="#1F1F1F"/>
    <path d="M201.437 247.468L188.142 232.441L194.162 227.792C195.525 226.739 196.88 226.041 198.228 225.699C199.563 225.343 200.832 225.35 202.037 225.72C203.244 226.065 204.329 226.781 205.291 227.868C206.228 228.928 206.77 230.051 206.918 231.237C207.068 232.398 206.837 233.565 206.224 234.737C205.598 235.895 204.604 237 203.24 238.053L198.163 241.975L198.275 240.659L203.137 246.155L201.437 247.468ZM212.42 238.986L203.46 236.727L205.298 235.308L214.281 237.548L212.42 238.986ZM198.389 240.788L196.966 240.623L201.998 236.736C203.606 235.494 204.533 234.224 204.777 232.927C205.037 231.618 204.642 230.37 203.591 229.182C202.527 227.98 201.283 227.375 199.858 227.367C198.448 227.348 196.939 227.959 195.331 229.201L190.299 233.088L190.393 231.751L198.389 240.788Z" fill="#1F1F1F"/>
    <path d="M234.119 215.018C233.281 216.236 232.266 217.282 231.074 218.155C229.876 219.003 228.733 219.531 227.646 219.738L226.684 218.2C227.683 217.984 228.725 217.517 229.809 216.8C230.888 216.057 231.797 215.146 232.539 214.069C233.248 213.038 233.69 212.122 233.863 211.321C234.03 210.494 233.982 209.792 233.718 209.214C233.465 208.62 233.054 208.153 232.485 207.811C231.8 207.4 231.119 207.256 230.444 207.38C229.778 207.488 229.125 207.768 228.482 208.221C227.823 208.664 227.154 209.19 226.476 209.798C225.798 210.406 225.111 211.009 224.416 211.607C223.705 212.195 222.964 212.688 222.193 213.086C221.434 213.469 220.641 213.677 219.815 213.71C218.983 213.718 218.098 213.441 217.162 212.879C216.293 212.356 215.644 211.669 215.215 210.815C214.781 209.936 214.652 208.921 214.83 207.769C214.992 206.608 215.55 205.332 216.507 203.942C217.141 203.021 217.912 202.192 218.819 201.457C219.71 200.712 220.624 200.157 221.56 199.792L222.636 201.266C221.651 201.668 220.767 202.197 219.985 202.853C219.214 203.493 218.576 204.18 218.07 204.914C217.393 205.898 216.977 206.796 216.82 207.607C216.664 208.418 216.721 209.125 216.99 209.729C217.254 210.307 217.687 210.777 218.289 211.138C218.974 211.55 219.65 211.702 220.315 211.593C220.991 211.47 221.65 211.181 222.292 210.728C222.945 210.26 223.611 209.721 224.289 209.113C224.967 208.505 225.657 207.915 226.358 207.343C227.07 206.755 227.805 206.27 228.565 205.887C229.318 205.479 230.103 205.265 230.918 205.248C231.745 205.214 232.617 205.474 233.537 206.026C234.389 206.538 235.033 207.234 235.468 208.113C235.885 208.982 236.008 210.005 235.837 211.182C235.659 212.333 235.086 213.612 234.119 215.018Z" fill="#1F1F1F"/>
    <path d="M164.077 25.2201L174.298 8.31548L175.911 9.12312L176.401 26.5455L175.554 26.1218L191.909 17.1333L193.522 17.9409L183.301 34.8455L181.424 33.9055L190.024 19.6815L190.473 19.9066L175.452 28.1152L174.526 27.6518L174.052 11.6845L174.554 11.9361L165.955 26.1601L164.077 25.2201Z" fill="#1F1F1F"/>
    <path d="M127.269 19.8956L127.249 0.413484L129.459 0.263771L129.479 19.7459L127.269 19.8956Z" fill="#1F1F1F"/>
    <path d="M71.3425 33.5081L62.5213 17.9589L56.1481 21.4679L55.2604 19.9032L69.9239 11.8297L70.8116 13.3944L64.4384 16.9034L73.2597 32.4525L71.3425 33.5081Z" fill="#1F1F1F"/>
    <path d="M92.1745 24.4568L88.7661 5.30987L96.4335 3.67216C98.1699 3.30128 99.7095 3.2469 101.052 3.50902C102.392 3.7529 103.481 4.29635 104.319 5.13936C105.174 5.95997 105.725 7.06322 105.972 8.44909C106.212 9.79849 106.078 11.0385 105.571 12.169C105.08 13.2772 104.257 14.229 103.102 15.0245C101.944 15.8018 100.497 16.3759 98.7609 16.7468L92.2934 18.1282L93.0936 16.9919L94.3401 23.9942L92.1745 24.4568ZM106.163 21.4689L99.6587 15.6464L102 15.1464L108.534 20.9626L106.163 21.4689ZM93.1228 17.156L91.9867 16.405L98.3956 15.036C100.444 14.5985 101.921 13.8478 102.825 12.7839C103.749 11.7159 104.076 10.4252 103.806 8.91164C103.534 7.37989 102.786 6.3092 101.564 5.69958C100.361 5.08579 98.7352 4.99768 96.6866 5.43523L90.2776 6.80416L91.0729 5.64054L93.1228 17.156Z" fill="#1F1F1F"/>
    <path d="M65.0221 175.341C59.4143 174.914 55.6617 173.209 53.7643 170.225C53.2584 169.287 53.0054 168.222 53.0054 167.028C53.0054 166.517 53.0475 165.984 53.1319 165.43C53.2162 164.918 53.3005 164.556 53.3848 164.343C53.5113 164.087 53.6378 163.916 53.7643 163.831C53.933 163.789 54.1016 163.767 54.2703 163.767C54.4811 163.767 54.6498 163.81 54.7763 163.895C54.9028 163.938 54.9871 164.044 55.0292 164.215C55.1136 164.385 55.1557 164.535 55.1557 164.662C55.1557 164.705 55.1347 164.876 55.0925 165.174C55.0503 165.344 55.0292 165.536 55.0292 165.749C54.9871 166.09 54.966 166.41 54.966 166.709C54.966 167.902 55.2401 168.968 55.7882 169.906C55.999 170.204 56.2942 170.566 56.6736 170.993C57.0531 171.419 57.4326 171.76 57.8121 172.016C59.0348 172.783 60.5317 173.38 62.3026 173.806C63.3145 174.019 64.3475 174.126 65.4016 174.126C68.058 174.126 70.7775 173.422 73.5604 172.016C77.3973 170.14 81.1288 167.284 84.7549 163.448C88.887 159.057 91.7963 154.496 93.4829 149.764C94.1575 147.846 94.5159 146.034 94.5581 144.329V144.201C94.5581 138.191 91.4169 134.248 85.1344 132.372C83.8273 132.031 82.2673 131.861 80.4542 131.861C79.5266 131.861 78.7044 131.903 77.9876 131.989C77.2708 132.031 76.1745 132.138 74.6988 132.308C73.1809 132.521 72.0846 132.649 71.41 132.692C70.7354 132.735 70.1451 132.756 69.6391 132.756C67.4887 132.628 66.1606 132.01 65.6546 130.902C65.6124 130.731 65.5703 130.582 65.5281 130.454C65.5281 130.284 65.5281 130.049 65.5281 129.751C65.5703 129.197 65.7178 128.578 65.9708 127.896C66.2238 127.214 66.6665 126.341 67.299 125.275C68.9856 122.376 71.41 118.902 74.5723 114.853C77.7346 110.76 80.9602 106.966 84.249 103.471C84.6284 103.087 84.9447 102.746 85.1977 102.448C85.4506 102.15 85.5982 101.958 85.6404 101.873C85.6825 101.787 85.7036 101.723 85.7036 101.681C85.7036 101.638 85.6825 101.617 85.6404 101.617C85.5982 101.574 85.5561 101.553 85.5139 101.553C85.5139 101.553 85.4717 101.553 85.3874 101.553C85.3452 101.553 85.2609 101.574 85.1344 101.617C85.0079 101.659 84.8393 101.723 84.6284 101.809C84.4176 101.851 84.1436 101.936 83.8062 102.064C83.4689 102.192 83.0684 102.341 82.6046 102.512C75.3523 104.856 69.4704 106.263 64.9589 106.732H62.0496C60.8268 106.732 59.8781 106.689 59.2035 106.604C57.9386 106.391 56.8423 106.114 55.9147 105.773C55.0292 105.432 54.5022 105.091 54.3335 104.75C54.2914 104.665 54.2703 104.579 54.2703 104.494C54.2703 104.451 54.2914 104.388 54.3335 104.302C54.5022 104.047 54.7341 103.919 55.0292 103.919C55.3244 103.919 55.6828 104.068 56.1044 104.366C56.2731 104.494 56.4417 104.601 56.6104 104.686C56.8212 104.771 57.0742 104.856 57.3694 104.942C58.6343 105.283 60.0679 105.453 61.6701 105.453C62.8929 105.453 64.221 105.347 65.6546 105.133C68.2688 104.75 71.3257 104.11 74.8253 103.215C78.3671 102.277 81.8034 101.233 85.1344 100.082C86.315 99.6559 87.4534 99.2296 88.5497 98.8033C89.6881 98.3771 90.4893 98.0787 90.9531 97.9082C91.6277 97.6098 92.2812 97.4606 92.9137 97.4606H93.2932C93.6726 97.4606 93.9678 97.5032 94.1786 97.5885C94.4316 97.6311 94.6424 97.7377 94.8111 97.9082C94.9797 98.0361 95.0641 98.1852 95.0641 98.3558C95.0641 98.6115 94.7689 98.9312 94.1786 99.3149C93.3353 99.9543 91.5644 101.702 88.8659 104.558C86.1674 107.414 83.4478 110.419 80.7072 113.574C76.5329 118.476 73.4128 122.461 71.3468 125.531C69.8288 127.79 69.0699 129.346 69.0699 130.198V130.518C69.0699 130.603 69.0699 130.688 69.0699 130.774C69.1121 130.816 69.1753 130.88 69.2596 130.966L69.4494 131.221L70.3348 131.157C70.5878 131.157 70.9251 131.157 71.3468 131.157C71.7684 131.115 72.169 131.072 72.5484 131.03C73.8134 130.859 74.8042 130.752 75.521 130.71C76.2378 130.625 76.8492 130.582 77.3551 130.582C77.9033 130.539 78.599 130.518 79.4423 130.518C80.7915 130.518 81.8245 130.561 82.5413 130.646C83.3003 130.688 84.1436 130.795 85.0712 130.966C87.601 131.477 89.8357 132.372 91.7753 133.651C95.7808 136.379 97.7836 140.152 97.7836 144.969C97.7836 149.785 97.7836 145.544 97.7836 145.544C97.4042 151.597 94.1786 157.821 88.107 164.215C82.204 170.225 76.1535 173.849 69.9553 175.085C68.8169 175.298 67.6785 175.404 66.54 175.404C66.0341 175.404 65.5281 175.383 65.0221 175.341Z" fill="#1F1F1F"/>
    <path d="M188.643 183.589C188.306 183.504 188.032 183.312 187.821 183.013C187.61 182.758 187.42 182.31 187.252 181.671C186.577 179.156 186.008 174.126 185.544 166.581C185.502 166.027 185.46 165.515 185.417 165.046C185.375 164.535 185.354 164.194 185.354 164.023C185.354 163.81 185.333 163.426 185.291 162.872C185.249 162.275 185.228 161.657 185.228 161.018C185.228 160.805 185.207 160.613 185.165 160.442C185.122 159.547 185.08 158.524 185.038 157.373C184.996 156.18 184.933 154.411 184.848 152.066C184.764 150.02 184.722 147.548 184.722 144.649C184.722 141.75 184.722 139.683 184.722 138.447C184.722 135.889 184.743 133.694 184.785 131.861C184.827 127.896 184.912 124.06 185.038 120.351C185.207 116.643 185.439 111.506 185.734 104.942C185.776 103.705 185.818 102.448 185.86 101.169C185.945 99.8904 186.008 98.846 186.05 98.0361C186.134 96.7146 186.176 95.0522 186.176 93.0487C186.219 91.0026 186.24 89.1057 186.24 87.3579C186.24 85.6529 186.219 84.3954 186.176 83.5854C186.008 80.3458 185.565 78.0439 184.848 76.6798C184.595 76.1683 184.363 75.7847 184.153 75.5289C183.984 75.401 183.857 75.3371 183.773 75.3371C183.731 75.2944 183.626 75.2731 183.457 75.2731C182.698 75.2731 181.602 75.8912 180.168 77.1274C178.777 78.3636 177.322 79.9834 175.804 81.9869C169.479 90.4271 163.26 102.043 157.146 116.835C154.406 123.442 151.433 131.584 148.229 141.26C147.175 144.414 146.352 146.844 145.762 148.549C145.214 150.254 144.771 151.533 144.434 152.386C144.097 153.238 143.802 153.963 143.549 154.56C143.253 155.284 142.979 155.86 142.726 156.286C142.473 156.712 142.199 157.075 141.904 157.373C141.735 157.544 141.567 157.672 141.398 157.757C141.272 157.842 141.103 157.927 140.892 158.013C140.681 158.055 140.492 158.098 140.323 158.14C140.154 158.14 139.944 158.14 139.691 158.14C138.763 158.098 138.046 157.693 137.54 156.926C137.076 156.158 136.676 154.816 136.338 152.897C136.001 151.064 135.706 148.613 135.453 145.544C135.242 142.432 135.052 137.871 134.884 131.861C134.673 124.699 134.378 120.224 133.998 118.433C133.872 117.709 133.682 117.346 133.429 117.346C133.176 117.346 132.839 117.687 132.417 118.369C130.014 122.248 127.041 129.559 123.5 140.301C122.319 143.839 121.244 147.249 120.274 150.532C119.346 153.771 118.229 157.885 116.922 162.872C116.121 166.112 115.446 168.627 114.898 170.417C114.392 172.207 113.97 173.529 113.633 174.381C113.296 175.191 112.958 175.767 112.621 176.108C112.031 176.747 111.293 177.067 110.408 177.067C110.197 177.067 109.986 177.046 109.775 177.003C108.299 176.918 107.203 175.682 106.486 173.294C105.137 168.946 104.188 161.956 103.64 152.322C103.556 150.659 103.493 149.231 103.45 148.038C103.366 146.802 103.324 145.395 103.324 143.818C103.324 142.241 103.324 140.045 103.324 137.232V136.784C103.324 132.863 103.345 129.9 103.387 127.896C103.429 125.85 103.535 123.207 103.703 119.968C104.041 113.616 104.484 107.926 105.032 102.896C105.58 97.8229 106.128 94.2422 106.676 92.1535C107.013 91.0026 107.477 90.3419 108.067 90.1713C108.32 90.0861 108.658 90.0435 109.079 90.0435C109.459 90.0435 109.775 90.1074 110.028 90.2353C110.45 90.4058 110.661 90.6829 110.661 91.0665C110.661 91.4928 110.408 94.0504 109.902 98.7394C108.468 112.636 107.688 125.445 107.561 137.168V139.15C107.561 145.757 107.751 152.109 108.131 158.204C108.595 164.897 109.206 169.756 109.965 172.783C110.091 173.209 110.197 173.508 110.281 173.678C110.365 173.849 110.45 173.934 110.534 173.934C110.661 173.934 110.766 173.891 110.85 173.806C110.977 173.678 111.124 173.444 111.293 173.103C111.715 172.122 112.263 170.566 112.937 168.435C113.612 166.304 114.582 163.043 115.847 158.652C116.817 155.199 117.618 152.428 118.25 150.34C118.883 148.208 119.578 145.928 120.337 143.498C122.614 136.422 124.764 130.411 126.788 125.467C128.812 120.522 130.414 117.389 131.595 116.067C132.27 115.343 133.071 114.98 133.998 114.98C134.251 114.98 134.504 115.002 134.757 115.044C135.685 115.215 136.381 115.876 136.844 117.027C137.308 118.177 137.667 120.053 137.92 122.653C138.173 125.211 138.383 129.282 138.552 134.866C138.889 144.926 139.29 151.171 139.754 153.601C139.838 154.197 139.922 154.602 140.007 154.816C140.091 155.029 140.175 155.157 140.26 155.199H140.323C140.492 155.199 140.745 154.879 141.082 154.24C142.052 152.45 143.759 148.144 146.205 141.324C148.819 133.95 151.054 127.896 152.909 123.165C154.764 118.391 156.556 114.021 158.285 110.057C166.423 91.9404 173.548 80.3671 179.662 75.3371C180.042 75.0813 180.484 74.8255 180.99 74.5698C181.496 74.314 181.918 74.1435 182.255 74.0583C182.635 73.973 183.098 73.9304 183.647 73.9304C184.195 73.8877 184.637 73.9091 184.975 73.9943C188.011 74.4632 189.76 78.1078 190.224 84.9282C190.309 86.3349 190.351 88.4449 190.351 91.2583C190.393 94.0291 190.372 96.5441 190.287 98.8034C190.245 99.2723 190.203 100.018 190.161 101.041C190.119 101.595 190.098 102.128 190.098 102.64C190.056 104.004 189.992 105.496 189.908 107.116C189.824 108.736 189.718 110.952 189.592 113.766C189.044 124.124 188.664 132.074 188.453 137.615C188.242 143.114 188.137 148.592 188.137 154.048C188.137 161.764 188.285 168.2 188.58 173.358C188.917 178.516 189.36 181.649 189.908 182.758C190.034 182.971 190.098 183.141 190.098 183.269C190.098 183.397 190.013 183.504 189.845 183.589C189.676 183.632 189.507 183.653 189.339 183.653C189.212 183.653 189.128 183.653 189.086 183.653C188.917 183.653 188.77 183.632 188.643 183.589Z" fill="#1F1F1F"/>
    <path fill-rule="evenodd" clip-rule="evenodd" d="M159.257 14.2652C152.695 12.4045 145.912 11.0716 138.956 10.315L139.103 8.95866C146.135 9.72352 152.993 11.0711 159.627 12.9524L159.257 14.2652ZM53.2412 32.7904C21.8271 55.358 1.36081 92.2638 1.36081 133.962C1.36081 154.321 6.23935 173.536 14.8878 190.497L13.6761 191.118C4.93193 173.969 0 154.542 0 133.962C0 91.8054 20.6932 54.4942 52.4485 31.6814L53.2412 32.7904ZM249.482 133.962C249.482 92.2638 229.016 55.358 197.602 32.7904L198.394 31.6814C230.15 54.4942 250.843 91.8054 250.843 133.962C250.843 154.542 245.911 173.969 237.167 191.118L235.955 190.497C244.604 173.536 249.482 154.321 249.482 133.962Z" fill="#1F1F1F"/>
</svg>