<svg width="68" height="55" viewBox="0 0 68 55" fill="none" xmlns="http://www.w3.org/2000/svg">
    <path d="M5.93199 50.0709C3.16373 49.8605 1.31128 49.0188 0.374652 47.5458C0.124884 47.0828 0 46.5568 0 45.9676C0 45.7151 0.020814 45.452 0.062442 45.1785C0.10407 44.926 0.145698 44.7471 0.187326 44.6419C0.249768 44.5156 0.31221 44.4315 0.374652 44.3894C0.457908 44.3683 0.541164 44.3578 0.62442 44.3578C0.72849 44.3578 0.811746 44.3789 0.874188 44.421C0.93663 44.442 0.978258 44.4946 0.999072 44.5788C1.0407 44.6629 1.06151 44.7366 1.06151 44.7997C1.06151 44.8208 1.05111 44.9049 1.03029 45.0522C1.00948 45.1364 0.999072 45.2311 0.999072 45.3363C0.978258 45.5046 0.967851 45.6625 0.967851 45.8098C0.967851 46.399 1.10314 46.925 1.37372 47.388C1.47779 47.5353 1.62349 47.7141 1.81082 47.9245C1.99814 48.135 2.18547 48.3033 2.3728 48.4296C2.9764 48.8083 3.7153 49.1029 4.58949 49.3134C5.08902 49.4186 5.59896 49.4712 6.11931 49.4712C7.4306 49.4712 8.7731 49.124 10.1468 48.4296C12.0409 47.5037 13.8829 46.0938 15.6729 44.2C17.7127 42.0326 19.1489 39.7811 19.9814 37.4453C20.3145 36.4984 20.4914 35.6041 20.5122 34.7624V34.6993C20.5122 31.7323 18.9615 29.7858 15.8603 28.8599C15.215 28.6916 14.4449 28.6074 13.5499 28.6074C13.092 28.6074 12.6861 28.6285 12.3323 28.6706C11.9785 28.6916 11.4373 28.7442 10.7088 28.8284C9.9595 28.9336 9.41833 28.9967 9.08531 29.0178C8.75228 29.0388 8.46089 29.0493 8.21112 29.0493C7.14961 28.9862 6.49397 28.6811 6.2442 28.134C6.22338 28.0498 6.20257 27.9761 6.18176 27.913C6.18176 27.8288 6.18176 27.7131 6.18176 27.5658C6.20257 27.2923 6.27542 26.9871 6.4003 26.6505C6.52519 26.3138 6.74373 25.8824 7.05594 25.3564C7.8885 23.9255 9.08531 22.2105 10.6464 20.2114C12.2074 18.1913 13.7997 16.3185 15.4232 14.5931C15.6105 14.4037 15.7666 14.2353 15.8915 14.088C16.0164 13.9407 16.0892 13.846 16.11 13.804C16.1308 13.7619 16.1413 13.7303 16.1413 13.7093C16.1413 13.6882 16.1308 13.6777 16.11 13.6777C16.0892 13.6567 16.0684 13.6461 16.0476 13.6461C16.0476 13.6461 16.0268 13.6461 15.9851 13.6461C15.9643 13.6461 15.9227 13.6567 15.8603 13.6777C15.7978 13.6987 15.7146 13.7303 15.6105 13.7724C15.5064 13.7934 15.3711 13.8355 15.2046 13.8986C15.0381 13.9618 14.8404 14.0354 14.6114 14.1196C11.0314 15.2769 8.12786 15.9713 5.90077 16.2028H4.4646C3.861 16.2028 3.39268 16.1818 3.05966 16.1397C2.43524 16.0345 1.89407 15.8977 1.43617 15.7294C0.999072 15.561 0.738897 15.3927 0.655641 15.2243C0.634827 15.1822 0.62442 15.1402 0.62442 15.0981C0.62442 15.077 0.634827 15.0455 0.655641 15.0034C0.738897 14.8771 0.853374 14.814 0.999072 14.814C1.14477 14.814 1.32169 14.8876 1.52983 15.0349C1.61308 15.0981 1.69634 15.1507 1.7796 15.1928C1.88367 15.2349 2.00855 15.2769 2.15425 15.319C2.77867 15.4874 3.48634 15.5715 4.27728 15.5715C4.88088 15.5715 5.53652 15.5189 6.2442 15.4137C7.53467 15.2243 9.04368 14.9087 10.7712 14.4668C12.5196 14.0039 14.216 13.4883 15.8603 12.9202C16.4431 12.7097 17.005 12.4993 17.5462 12.2889C18.1082 12.0785 18.5036 11.9312 18.7326 11.847C19.0656 11.6997 19.3882 11.626 19.7004 11.626H19.8878C20.0751 11.626 20.2208 11.6471 20.3249 11.6892C20.4497 11.7102 20.5538 11.7628 20.6371 11.847C20.7203 11.9101 20.762 11.9838 20.762 12.0679C20.762 12.1942 20.6163 12.352 20.3249 12.5414C19.9086 12.857 19.0344 13.7198 17.7023 15.1296C16.3702 16.5395 15.0277 18.023 13.6748 19.5802C11.6142 22.0001 10.074 23.9675 9.05409 25.4826C8.30478 26.5979 7.93013 27.3659 7.93013 27.7868V27.9446C7.93013 27.9867 7.93013 28.0287 7.93013 28.0708C7.95095 28.0919 7.98217 28.1234 8.02379 28.1655L8.11746 28.2918L8.55455 28.2602C8.67943 28.2602 8.84595 28.2602 9.05409 28.2602C9.26223 28.2392 9.45996 28.2181 9.64729 28.1971C10.2717 28.1129 10.7608 28.0603 11.1147 28.0393C11.4685 27.9972 11.7703 27.9761 12.0201 27.9761C12.2907 27.9551 12.6341 27.9446 13.0504 27.9446C13.7164 27.9446 14.2264 27.9656 14.5802 28.0077C14.9549 28.0287 15.3711 28.0814 15.829 28.1655C17.0779 28.418 18.181 28.8599 19.1385 29.4912C21.1158 30.8379 22.1045 32.7002 22.1045 35.078C22.1045 37.4558 22.1045 35.3621 22.1045 35.3621C21.9171 38.3502 20.3249 41.4224 17.3277 44.5788C14.4137 47.5458 11.4269 49.3344 8.36723 49.9446C7.80525 50.0499 7.24327 50.1025 6.68129 50.1025C6.43152 50.1025 6.18176 50.0919 5.93199 50.0709Z" fill="#1F1F1F"/>
    <path d="M66.9565 54.1427C66.79 54.1006 66.6547 54.0059 66.5507 53.8586C66.4466 53.7323 66.3529 53.5114 66.2697 53.1957C65.9366 51.9542 65.6557 49.4712 65.4267 45.7467C65.4059 45.4731 65.3851 45.2206 65.3643 44.9891C65.3435 44.7366 65.333 44.5683 65.333 44.4841C65.333 44.3789 65.3226 44.1895 65.3018 43.9159C65.281 43.6213 65.2706 43.3162 65.2706 43.0006C65.2706 42.8954 65.2602 42.8007 65.2394 42.7165C65.2186 42.2746 65.1978 41.7696 65.1769 41.2014C65.1561 40.6123 65.1249 39.739 65.0833 38.5816C65.0416 37.5716 65.0208 36.3511 65.0208 34.9202C65.0208 33.4893 65.0208 32.4688 65.0208 31.8585C65.0208 30.596 65.0312 29.5123 65.0521 28.6074C65.0729 26.6505 65.1145 24.7566 65.1769 22.9259C65.2602 21.0952 65.3747 18.5596 65.5204 15.319C65.5412 14.7088 65.562 14.088 65.5828 13.4568C65.6244 12.8255 65.6557 12.3099 65.6765 11.9101C65.7181 11.2578 65.7389 10.4371 65.7389 9.44814C65.7597 8.43809 65.7701 7.50169 65.7701 6.63895C65.7701 5.79724 65.7597 5.17648 65.7389 4.77667C65.6557 3.17744 65.4371 2.04113 65.0833 1.36777C64.9584 1.11526 64.8439 0.925875 64.7398 0.799619C64.6566 0.736492 64.5941 0.704928 64.5525 0.704928C64.5317 0.683885 64.4797 0.673364 64.3964 0.673364C64.0218 0.673364 63.4806 0.978482 62.7729 1.58872C62.0861 2.19895 61.368 2.99857 60.6187 3.98758C57.4966 8.15401 54.4265 13.8881 51.4085 21.1899C50.0556 24.4515 48.5882 28.4707 47.0063 33.2473C46.486 34.8045 46.0801 36.0039 45.7887 36.8456C45.5181 37.6873 45.2996 38.3186 45.1331 38.7395C44.9666 39.1603 44.8209 39.518 44.696 39.8126C44.5503 40.1704 44.415 40.4544 44.2901 40.6649C44.1652 40.8753 44.0299 41.0541 43.8842 41.2014C43.801 41.2856 43.7177 41.3487 43.6345 41.3908C43.572 41.4329 43.4888 41.475 43.3847 41.5171C43.2806 41.5381 43.187 41.5592 43.1037 41.5802C43.0204 41.5802 42.9164 41.5802 42.7915 41.5802C42.3336 41.5592 41.9797 41.3593 41.73 40.9805C41.501 40.6017 41.3033 39.9389 41.1368 38.992C40.9703 38.0871 40.8246 36.8772 40.6997 35.3621C40.5956 33.826 40.5019 31.5744 40.4187 28.6074C40.3146 25.0723 40.1689 22.8628 39.9816 21.979C39.9192 21.6213 39.8255 21.4424 39.7006 21.4424C39.5757 21.4424 39.4092 21.6108 39.2011 21.9475C38.0147 23.8623 36.5473 27.4711 34.7989 32.7739C34.2161 34.5204 33.6854 36.2038 33.2066 37.8241C32.7487 39.4233 32.1972 41.454 31.5519 43.9159C31.1565 45.5152 30.8234 46.7567 30.5529 47.6405C30.3031 48.5243 30.095 49.1766 29.9284 49.5975C29.7619 49.9973 29.5954 50.2813 29.4289 50.4497C29.1375 50.7653 28.7733 50.9231 28.3362 50.9231C28.2321 50.9231 28.128 50.9126 28.024 50.8916C27.2955 50.8495 26.7543 50.2393 26.4005 49.0609C25.7344 46.9145 25.2661 43.4635 24.9955 38.7079C24.9539 37.8872 24.9227 37.1823 24.9019 36.5931C24.8602 35.9829 24.8394 35.2885 24.8394 34.5099C24.8394 33.7313 24.8394 32.6476 24.8394 31.2588V31.0379C24.8394 29.1019 24.8498 27.6395 24.8706 26.6505C24.8915 25.6404 24.9435 24.3358 25.0267 22.7365C25.1933 19.6012 25.4118 16.792 25.6824 14.309C25.953 11.8049 26.2236 10.0373 26.4941 9.00624C26.6606 8.43809 26.8896 8.11193 27.181 8.02776C27.3059 7.98567 27.4724 7.96463 27.6805 7.96463C27.8679 7.96463 28.024 7.99619 28.1488 8.05932C28.357 8.14349 28.4611 8.28027 28.4611 8.46965C28.4611 8.68008 28.3362 9.94264 28.0864 12.2573C27.3787 19.1172 26.9937 25.4405 26.9312 31.2272V32.2057C26.9312 35.4673 27.0249 38.6027 27.2122 41.6118C27.4412 44.9155 27.743 47.3143 28.1176 48.8083C28.1801 49.0188 28.2321 49.1661 28.2737 49.2502C28.3154 49.3344 28.357 49.3765 28.3986 49.3765C28.4611 49.3765 28.5131 49.3555 28.5547 49.3134C28.6172 49.2502 28.69 49.1345 28.7733 48.9662C28.9814 48.4822 29.252 47.7141 29.585 46.662C29.918 45.6099 30.3968 44.0001 31.0212 41.8327C31.4999 40.1283 31.8954 38.7605 32.2076 37.7294C32.5198 36.6773 32.8632 35.5515 33.2379 34.3521C34.3618 30.859 35.4233 27.892 36.4224 25.451C37.4215 23.0101 38.2124 21.4635 38.7952 20.8111C39.1282 20.4534 39.5237 20.2746 39.9816 20.2746C40.1065 20.2746 40.2314 20.2851 40.3563 20.3061C40.8142 20.3903 41.1576 20.7165 41.3865 21.2846C41.6155 21.8528 41.7924 22.7786 41.9173 24.0622C42.0422 25.3248 42.1463 27.3344 42.2295 30.0909C42.396 35.057 42.5938 38.1397 42.8227 39.3392C42.8643 39.6338 42.906 39.8337 42.9476 39.9389C42.9892 40.0441 43.0308 40.1072 43.0725 40.1283H43.1037C43.187 40.1283 43.3118 39.9705 43.4784 39.6548C43.9571 38.771 44.8 36.6457 46.0073 33.2789C47.2977 29.6385 48.4009 26.6505 49.3167 24.3147C50.2325 21.958 51.1171 19.8011 51.9705 17.8441C55.9876 8.90103 59.5051 3.18796 62.5232 0.704928C62.7105 0.578672 62.929 0.452416 63.1788 0.326161C63.4286 0.199905 63.6367 0.115734 63.8032 0.0736492C63.9905 0.0315639 64.2195 0.0105213 64.4901 0.0105213C64.7607 -0.0105213 64.9792 0 65.1457 0.0420852C66.6443 0.273554 67.5081 2.0727 67.7371 5.43952C67.7787 6.13392 67.7995 7.17553 67.7995 8.56435C67.8203 9.93212 67.8099 11.1736 67.7683 12.2889C67.7475 12.5204 67.7267 12.8886 67.7058 13.3936C67.685 13.6672 67.6746 13.9302 67.6746 14.1827C67.6538 14.8561 67.6226 15.5926 67.581 16.3922C67.5393 17.1918 67.4873 18.286 67.4249 19.6748C67.1543 24.7882 66.9669 28.7127 66.8629 31.4482C66.7588 34.1627 66.7068 36.8667 66.7068 39.5601C66.7068 43.3688 66.7796 46.5463 66.9253 49.0924C67.0918 51.6386 67.3104 53.1852 67.581 53.7323C67.6434 53.8375 67.6746 53.9217 67.6746 53.9848C67.6746 54.048 67.633 54.1006 67.5497 54.1427C67.4665 54.1637 67.3832 54.1742 67.3 54.1742C67.2375 54.1742 67.1959 54.1742 67.1751 54.1742C67.0918 54.1742 67.019 54.1637 66.9565 54.1427Z" fill="#1F1F1F"/>
</svg>