<svg width="12" height="12" viewBox="0 0 12 12" fill="none" xmlns="http://www.w3.org/2000/svg">
    <path d="M4.24046 0.19533C4.33976 0.294432 4.40526 0.422331 4.42764 0.560819C4.45002 0.699308 4.42815 0.841329 4.36513 0.966664C3.89587 1.89971 3.73269 2.95694 3.89877 3.98805C4.06486 5.01917 4.55177 5.97168 5.29027 6.71019C6.02878 7.44869 6.98129 7.9356 8.01241 8.10169C9.04352 8.26777 10.1007 8.10459 11.0338 7.63533C11.1591 7.57222 11.301 7.55022 11.4395 7.57248C11.578 7.59474 11.706 7.66011 11.8052 7.7593C11.9043 7.85848 11.9697 7.98643 11.992 8.12492C12.0142 8.26341 11.9922 8.40539 11.9291 8.53066C11.4809 9.421 10.8278 10.1923 10.0236 10.7811C9.21927 11.37 8.28675 11.7595 7.30261 11.9179C6.31847 12.0762 5.31081 11.9987 4.36243 11.6919C3.41405 11.385 2.55202 10.8575 1.84718 10.1526C1.14234 9.44777 0.614811 8.58574 0.307937 7.63736C0.00106283 6.68898 -0.0763942 5.68132 0.0819307 4.69718C0.240255 3.71304 0.629843 2.78052 1.21868 1.97624C1.80751 1.17196 2.57879 0.518876 3.46913 0.0706636C3.59454 0.00748961 3.7367 -0.0144701 3.87533 0.00791644C4.01396 0.030303 4.14198 0.0958924 4.24113 0.19533H4.24046ZM2.54913 2.44666C1.72868 3.39598 1.29793 4.62064 1.34346 5.87454C1.38899 7.12844 1.90742 8.31864 2.79456 9.20595C3.6817 10.0933 4.8718 10.6119 6.12569 10.6577C7.37958 10.7034 8.60433 10.2729 9.5538 9.45266C8.60641 9.5664 7.64556 9.46344 6.74378 9.15157C5.84199 8.8397 5.02283 8.32706 4.34811 7.65235C3.6734 6.97763 3.16076 6.15847 2.84889 5.25668C2.53702 4.3549 2.43406 3.39405 2.5478 2.44666H2.54913Z" fill="#959595"/>
</svg>