<svg width="74" height="74" viewBox="0 0 74 74" fill="none" xmlns="http://www.w3.org/2000/svg">
    <circle cx="37" cy="37" r="37" fill="#F1F1F1"/>
    <path d="M34.1979 40.1411C34.1979 39.3195 34.3226 38.5975 34.5722 37.9751C34.8467 37.3278 35.1836 36.7552 35.5829 36.2573C35.9822 35.7593 36.4064 35.3112 36.8556 34.9129C37.3298 34.4896 37.7665 34.0913 38.1658 33.7178C38.5651 33.3195 38.8895 32.9212 39.139 32.5228C39.4135 32.1245 39.5508 31.6888 39.5508 31.2158C39.5508 30.4689 39.2389 29.8838 38.615 29.4606C38.016 29.0373 37.2299 28.8257 36.2567 28.8257C35.2585 28.8257 34.3476 29.0622 33.5241 29.5353C32.7255 30.0083 32.0766 30.6681 31.5775 31.5145L26 28.527C26.9733 26.8589 28.3832 25.527 30.2299 24.5311C32.0766 23.5104 34.3725 23 37.1176 23C39.0392 23 40.7362 23.2739 42.2086 23.8216C43.7059 24.3444 44.8788 25.1286 45.7273 26.1743C46.5758 27.2199 47 28.5021 47 30.0207C47 30.9917 46.8503 31.8382 46.5508 32.5602C46.2513 33.2822 45.8645 33.917 45.3904 34.4647C44.9412 35.0124 44.4545 35.5228 43.9305 35.9959C43.4064 36.444 42.9073 36.8797 42.4332 37.3029C41.984 37.7261 41.6096 38.1618 41.3102 38.61C41.0107 39.0581 40.861 39.5685 40.861 40.1411H34.1979ZM37.5294 50C36.3066 50 35.2959 49.6141 34.4973 48.8423C33.6988 48.0705 33.2995 47.1494 33.2995 46.0788C33.2995 44.9834 33.6988 44.0747 34.4973 43.3527C35.2959 42.6058 36.3066 42.2324 37.5294 42.2324C38.8021 42.2324 39.8253 42.6058 40.5989 43.3527C41.3975 44.0747 41.7968 44.9834 41.7968 46.0788C41.7968 47.1494 41.3975 48.0705 40.5989 48.8423C39.8253 49.6141 38.8021 50 37.5294 50Z" fill="#717171"/>
</svg>