<svg width="15" height="20" viewBox="0 0 15 20" fill="none" xmlns="http://www.w3.org/2000/svg">
    <path d="M5.75552 12.37C5.75552 11.798 5.84219 11.2954 6.01552 10.862C6.20619 10.4114 6.44019 10.0127 6.71752 9.66604C6.99486 9.31937 7.28952 9.00737 7.60152 8.73004C7.93086 8.43537 8.23419 8.15804 8.51152 7.89804C8.78886 7.6207 9.01419 7.34337 9.18752 7.06604C9.37819 6.7887 9.47352 6.48537 9.47352 6.15604C9.47352 5.63604 9.25686 5.2287 8.82352 4.93404C8.40752 4.63937 7.86152 4.49204 7.18552 4.49204C6.49219 4.49204 5.85952 4.6567 5.28752 4.98604C4.73286 5.31537 4.28219 5.7747 3.93552 6.36404L0.0615234 4.28404C0.737523 3.1227 1.71686 2.19537 2.99952 1.50204C4.28219 0.791369 5.87686 0.436035 7.78352 0.436035C9.11819 0.436035 10.2969 0.626702 11.3195 1.00804C12.3595 1.37204 13.1742 1.91804 13.7635 2.64604C14.3529 3.37404 14.6475 4.2667 14.6475 5.32404C14.6475 6.00004 14.5435 6.58937 14.3355 7.09204C14.1275 7.5947 13.8589 8.0367 13.5295 8.41804C13.2175 8.79937 12.8795 9.1547 12.5155 9.48404C12.1515 9.79604 11.8049 10.0994 11.4755 10.394C11.1635 10.6887 10.9035 10.992 10.6955 11.304C10.4875 11.616 10.3835 11.9714 10.3835 12.37H5.75552ZM8.06952 19.234C7.22019 19.234 6.51819 18.9654 5.96352 18.428C5.40886 17.8907 5.13152 17.2494 5.13152 16.504C5.13152 15.7414 5.40886 15.1087 5.96352 14.606C6.51819 14.086 7.22019 13.826 8.06952 13.826C8.95352 13.826 9.66419 14.086 10.2015 14.606C10.7562 15.1087 11.0335 15.7414 11.0335 16.504C11.0335 17.2494 10.7562 17.8907 10.2015 18.428C9.66419 18.9654 8.95352 19.234 8.06952 19.234Z" fill="#1F1F1F"/>
</svg>