<svg width="74" height="74" viewBox="0 0 74 74" fill="none" xmlns="http://www.w3.org/2000/svg">
    <circle cx="37" cy="37" r="37" fill="#F1F1F1"/>
    <path d="M37 22.0834C38.7018 22.0834 40.3339 22.7594 41.5373 23.9628C42.7406 25.1661 43.4167 26.7982 43.4167 28.5C43.4167 30.2018 42.7406 31.834 41.5373 33.0373C40.3339 34.2407 38.7018 34.9167 37 34.9167C35.2982 34.9167 33.6661 34.2407 32.4627 33.0373C31.2594 31.834 30.5833 30.2018 30.5833 28.5C30.5833 26.7982 31.2594 25.1661 32.4627 23.9628C33.6661 22.7594 35.2982 22.0834 37 22.0834ZM24.1667 26.6667C25.1933 26.6667 26.1467 26.9417 26.9717 27.4367C26.6967 30.0584 27.4667 32.6617 29.0433 34.6967C28.1267 36.4567 26.2933 37.6667 24.1667 37.6667C22.708 37.6667 21.309 37.0872 20.2776 36.0558C19.2461 35.0243 18.6667 33.6254 18.6667 32.1667C18.6667 30.708 19.2461 29.3091 20.2776 28.2776C21.309 27.2462 22.708 26.6667 24.1667 26.6667ZM49.8333 26.6667C51.292 26.6667 52.691 27.2462 53.7224 28.2776C54.7539 29.3091 55.3333 30.708 55.3333 32.1667C55.3333 33.6254 54.7539 35.0243 53.7224 36.0558C52.691 37.0872 51.292 37.6667 49.8333 37.6667C47.7067 37.6667 45.8733 36.4567 44.9567 34.6967C46.5551 32.6331 47.297 30.0331 47.0283 27.4367C47.8533 26.9417 48.8067 26.6667 49.8333 26.6667ZM25.0833 45.4584C25.0833 41.6634 30.4183 38.5834 37 38.5834C43.5817 38.5834 48.9167 41.6634 48.9167 45.4584V48.6667H25.0833V45.4584ZM15 48.6667V45.9167C15 43.3684 18.465 41.2234 23.1583 40.6C22.0767 41.8467 21.4167 43.57 21.4167 45.4584V48.6667H15ZM59 48.6667H52.5833V45.4584C52.5833 43.57 51.9233 41.8467 50.8417 40.6C55.535 41.2234 59 43.3684 59 45.9167V48.6667Z" fill="#717171"/>
</svg>