<svg width="14" height="14" viewBox="0 0 14 14" fill="none" xmlns="http://www.w3.org/2000/svg">
    <path d="M7 0C7.18565 0 7.3637 0.0737498 7.49497 0.205025C7.62625 0.336301 7.7 0.514348 7.7 0.7V1.4C7.7 1.58565 7.62625 1.7637 7.49497 1.89497C7.3637 2.02625 7.18565 2.1 7 2.1C6.81435 2.1 6.6363 2.02625 6.50503 1.89497C6.37375 1.7637 6.3 1.58565 6.3 1.4V0.7C6.3 0.514348 6.37375 0.336301 6.50503 0.205025C6.6363 0.0737498 6.81435 0 7 0ZM11.9497 2.0503C12.0809 2.18157 12.1547 2.35959 12.1547 2.5452C12.1547 2.73081 12.0809 2.90883 11.9497 3.0401L11.4548 3.535C11.3902 3.60186 11.313 3.65518 11.2276 3.69187C11.1422 3.72856 11.0503 3.74787 10.9574 3.74868C10.8644 3.74948 10.7723 3.73177 10.6862 3.69658C10.6002 3.66138 10.522 3.6094 10.4563 3.54368C10.3906 3.47795 10.3386 3.3998 10.3034 3.31377C10.2682 3.22774 10.2505 3.13556 10.2513 3.04262C10.2521 2.94967 10.2714 2.85782 10.3081 2.77242C10.3448 2.68701 10.3981 2.60977 10.465 2.5452L10.9599 2.0503C11.0912 1.91907 11.2692 1.84535 11.4548 1.84535C11.6404 1.84535 11.8184 1.91907 11.9497 2.0503ZM2.0503 2.0503C2.18157 1.91907 2.35959 1.84535 2.5452 1.84535C2.73081 1.84535 2.90883 1.91907 3.0401 2.0503L3.535 2.5452C3.66251 2.67722 3.73307 2.85404 3.73147 3.03758C3.72988 3.22112 3.65626 3.39669 3.52647 3.52647C3.39669 3.65626 3.22112 3.72988 3.03758 3.73147C2.85404 3.73307 2.67722 3.66251 2.5452 3.535L2.0503 3.0401C1.91907 2.90883 1.84535 2.73081 1.84535 2.5452C1.84535 2.35959 1.91907 2.18157 2.0503 2.0503ZM7 4.2C6.25739 4.2 5.5452 4.495 5.0201 5.0201C4.495 5.5452 4.2 6.25739 4.2 7C4.2 7.74261 4.495 8.4548 5.0201 8.9799C5.5452 9.505 6.25739 9.8 7 9.8C7.74261 9.8 8.4548 9.505 8.9799 8.9799C9.505 8.4548 9.8 7.74261 9.8 7C9.8 6.25739 9.505 5.5452 8.9799 5.0201C8.4548 4.495 7.74261 4.2 7 4.2ZM2.8 7C2.8 5.88609 3.2425 4.8178 4.03015 4.03015C4.8178 3.2425 5.88609 2.8 7 2.8C8.11391 2.8 9.1822 3.2425 9.96985 4.03015C10.7575 4.8178 11.2 5.88609 11.2 7C11.2 8.11391 10.7575 9.1822 9.96985 9.96985C9.1822 10.7575 8.11391 11.2 7 11.2C5.88609 11.2 4.8178 10.7575 4.03015 9.96985C3.2425 9.1822 2.8 8.11391 2.8 7ZM0 7C0 6.81435 0.0737498 6.6363 0.205025 6.50503C0.336301 6.37375 0.514348 6.3 0.7 6.3H1.4C1.58565 6.3 1.7637 6.37375 1.89497 6.50503C2.02625 6.6363 2.1 6.81435 2.1 7C2.1 7.18565 2.02625 7.3637 1.89497 7.49497C1.7637 7.62625 1.58565 7.7 1.4 7.7H0.7C0.514348 7.7 0.336301 7.62625 0.205025 7.49497C0.0737498 7.3637 0 7.18565 0 7ZM11.9 7C11.9 6.81435 11.9737 6.6363 12.105 6.50503C12.2363 6.37375 12.4143 6.3 12.6 6.3H13.3C13.4857 6.3 13.6637 6.37375 13.795 6.50503C13.9263 6.6363 14 6.81435 14 7C14 7.18565 13.9263 7.3637 13.795 7.49497C13.6637 7.62625 13.4857 7.7 13.3 7.7H12.6C12.4143 7.7 12.2363 7.62625 12.105 7.49497C11.9737 7.3637 11.9 7.18565 11.9 7ZM2.5452 10.465C2.67722 10.3375 2.85404 10.2669 3.03758 10.2685C3.22112 10.2701 3.39669 10.3437 3.52647 10.4735C3.65626 10.6033 3.72988 10.7789 3.73147 10.9624C3.73307 11.146 3.66251 11.3228 3.535 11.4548L3.0401 11.9497C2.90808 12.0772 2.73126 12.1478 2.54772 12.1462C2.36418 12.1446 2.18861 12.071 2.05883 11.9412C1.92904 11.8114 1.85542 11.6358 1.85383 11.4523C1.85223 11.2687 1.92279 11.0919 2.0503 10.9599L2.5452 10.465ZM10.465 11.4548C10.3375 11.3228 10.2669 11.146 10.2685 10.9624C10.2701 10.7789 10.3437 10.6033 10.4735 10.4735C10.6033 10.3437 10.7789 10.2701 10.9624 10.2685C11.146 10.2669 11.3228 10.3375 11.4548 10.465L11.9497 10.9599C12.0772 11.0919 12.1478 11.2687 12.1462 11.4523C12.1446 11.6358 12.071 11.8114 11.9412 11.9412C11.8114 12.071 11.6358 12.1446 11.4523 12.1462C11.2687 12.1478 11.0919 12.0772 10.9599 11.9497L10.465 11.4548ZM7 11.9C7.18565 11.9 7.3637 11.9737 7.49497 12.105C7.62625 12.2363 7.7 12.4143 7.7 12.6V13.3C7.7 13.4857 7.62625 13.6637 7.49497 13.795C7.3637 13.9263 7.18565 14 7 14C6.81435 14 6.6363 13.9263 6.50503 13.795C6.37375 13.6637 6.3 13.4857 6.3 13.3V12.6C6.3 12.4143 6.37375 12.2363 6.50503 12.105C6.6363 11.9737 6.81435 11.9 7 11.9Z" fill="#959595"/>
</svg>