<svg width="17" height="12" viewBox="0 0 17 12" fill="none" xmlns="http://www.w3.org/2000/svg">
    <path d="M9.11293 1.54168C9.11293 1.35382 9.02807 1.17365 8.87704 1.04081C8.726 0.907971 8.52116 0.833344 8.30756 0.833344C8.09396 0.833344 7.88912 0.907971 7.73808 1.04081C7.58705 1.17365 7.50219 1.35382 7.50219 1.54168V2.25001C7.50219 2.43787 7.58705 2.61804 7.73808 2.75088C7.88912 2.88372 8.09396 2.95834 8.30756 2.95834C8.52116 2.95834 8.726 2.88372 8.87704 2.75088C9.02807 2.61804 9.11293 2.43787 9.11293 2.25001V1.54168ZM5.91401 11.4583H1.05927C0.845675 11.4583 0.640828 11.3837 0.489792 11.2509C0.338757 11.118 0.253906 10.9379 0.253906 10.75C0.253906 10.5621 0.338757 10.382 0.489792 10.2491C0.640828 10.1163 0.845675 10.0417 1.05927 10.0417H4.12208C3.69823 9.39558 3.47519 8.66274 3.47537 7.91682C3.47555 7.17089 3.69894 6.43814 4.1231 5.7922C4.54726 5.14626 5.15724 4.60988 5.89176 4.23696C6.62628 3.86404 7.45945 3.66772 8.30756 3.66772C9.15567 3.66772 9.98884 3.86404 10.7234 4.23696C11.4579 4.60988 12.0679 5.14626 12.492 5.7922C12.9162 6.43814 13.1396 7.17089 13.1398 7.91682C13.1399 8.66274 12.9169 9.39558 12.493 10.0417H15.5558C15.7694 10.0417 15.9743 10.1163 16.1253 10.2491C16.2764 10.382 16.3612 10.5621 16.3612 10.75C16.3612 10.9379 16.2764 11.118 16.1253 11.2509C15.9743 11.3837 15.7694 11.4583 15.5558 11.4583H5.91401ZM8.30756 5.08334C7.6532 5.08331 7.01433 5.25854 6.47599 5.58572C5.93765 5.9129 5.52537 6.37651 5.29399 6.91486C5.06262 7.45321 5.02314 8.04076 5.1808 8.59933C5.33846 9.1579 5.68579 9.661 6.17656 10.0417H10.4386C10.9293 9.661 11.2767 9.1579 11.4343 8.59933C11.592 8.04076 11.5525 7.45321 11.3211 6.91486C11.0898 6.37651 10.6775 5.9129 10.1391 5.58572C9.60079 5.25854 8.96192 5.08331 8.30756 5.08334ZM14.0023 3.90964L13.4329 4.41043C13.3586 4.47808 13.2697 4.53204 13.1715 4.56917C13.0732 4.60629 12.9675 4.62583 12.8606 4.62665C12.7537 4.62746 12.6476 4.60954 12.5487 4.57393C12.4497 4.53831 12.3598 4.48571 12.2841 4.41921C12.2085 4.3527 12.1487 4.27361 12.1082 4.18656C12.0677 4.09951 12.0474 4.00624 12.0483 3.91218C12.0492 3.81813 12.0714 3.72518 12.1136 3.63877C12.1558 3.55235 12.2172 3.47419 12.2941 3.40884L12.8635 2.90805C12.9378 2.8404 13.0267 2.78644 13.1249 2.74931C13.2232 2.71219 13.3289 2.69265 13.4358 2.69183C13.5427 2.69102 13.6488 2.70894 13.7478 2.74455C13.8467 2.78017 13.9367 2.83276 14.0123 2.89927C14.0879 2.96578 14.1477 3.04487 14.1882 3.13192C14.2287 3.21897 14.2491 3.31224 14.2481 3.40629C14.2472 3.50035 14.225 3.59329 14.1828 3.67971C14.1406 3.76613 14.0792 3.84429 14.0023 3.90964Z" fill="#959595"/>
    <path d="M1.86464 8.625C2.07823 8.625 2.28308 8.55037 2.43412 8.41754C2.58515 8.2847 2.67 8.10453 2.67 7.91667C2.67 7.72881 2.58515 7.54864 2.43412 7.4158C2.28308 7.28296 2.07823 7.20834 1.86464 7.20834H1.05927C0.845675 7.20834 0.640828 7.28296 0.489792 7.4158C0.338757 7.54864 0.253906 7.72881 0.253906 7.91667C0.253906 8.10453 0.338757 8.2847 0.489792 8.41754C0.640828 8.55037 0.845675 8.625 1.05927 8.625H1.86464ZM16.3612 7.91667C16.3612 8.10453 16.2764 8.2847 16.1253 8.41754C15.9743 8.55037 15.7694 8.625 15.5558 8.625H14.7505C14.5369 8.625 14.332 8.55037 14.181 8.41754C14.03 8.2847 13.9451 8.10453 13.9451 7.91667C13.9451 7.72881 14.03 7.54864 14.181 7.4158C14.332 7.28296 14.5369 7.20834 14.7505 7.20834H15.5558C15.7694 7.20834 15.9743 7.28296 16.1253 7.4158C16.2764 7.54864 16.3612 7.72881 16.3612 7.91667ZM3.18221 4.41042C3.33411 4.53945 3.53755 4.61084 3.74871 4.60923C3.95987 4.60762 4.16187 4.53312 4.31119 4.40179C4.46051 4.27046 4.54521 4.0928 4.54705 3.90708C4.54888 3.72136 4.46771 3.54243 4.321 3.40884L3.75161 2.90804C3.67773 2.83886 3.5888 2.78343 3.4901 2.74506C3.3914 2.70669 3.28493 2.68616 3.17703 2.68469C3.06913 2.68321 2.96199 2.70083 2.86198 2.73648C2.76197 2.77214 2.67112 2.82511 2.59484 2.89224C2.51856 2.95938 2.4584 3.03932 2.41793 3.1273C2.37746 3.21529 2.35751 3.30953 2.35926 3.40443C2.36102 3.49934 2.38444 3.59296 2.42813 3.67974C2.47183 3.76653 2.53491 3.8447 2.61363 3.90963L3.18221 4.41042Z" fill="#959595"/>
</svg>
