<svg width="26" height="26" viewBox="0 0 26 26" fill="none" xmlns="http://www.w3.org/2000/svg">
    <g clip-path="url(#clip0_113_1251)">
        <path d="M20.2784 0.914429V4.94575H16.5524C15.3736 4.94575 14.0719 5.52119 12.9833 6.62102C11.8947 7.72084 10.7117 9.35242 8.83354 12.0356C6.9469 14.7308 5.89626 16.3595 5.24106 17.0914C4.58586 17.8233 4.69125 17.7605 3.73765 17.7605H0V20.9642H3.73765C5.16934 20.9642 6.60935 20.3658 7.62714 19.2289C8.64493 18.0919 9.60557 16.517 11.4566 13.8727C13.316 11.2164 14.4981 9.64427 15.2593 8.87528C16.0204 8.10631 16.0532 8.14945 16.5525 8.14945H20.2784V12.356L26 6.63601L20.2784 0.914429ZM0 4.94573V8.14943H3.73765C4.69125 8.14943 4.58586 8.08497 5.24106 8.81687C5.6626 9.28777 6.35704 10.2864 7.22334 11.545C7.34075 11.3766 7.39609 11.2954 7.52035 11.1178C7.99225 10.4437 8.42088 9.83546 8.81684 9.28073C8.95464 9.08768 9.07008 8.93538 9.20064 8.75512C8.61519 7.90927 8.1276 7.23843 7.62714 6.67939C6.60935 5.54245 5.16934 4.94573 3.73765 4.94573H0ZM20.2784 13.6441V17.7605H16.5524C16.0532 17.7605 16.0204 17.802 15.2593 17.033C14.7558 16.5244 14.0428 15.6227 13.0967 14.3299C12.9823 14.4922 12.8897 14.6206 12.7697 14.7921C12.1073 15.7384 11.6506 16.4211 11.1712 17.1281C11.8514 18.029 12.4304 18.7287 12.9833 19.2872C14.0719 20.3871 15.3736 20.9642 16.5524 20.9642H20.2784V25.0856L26 19.3657L20.2784 13.6441Z" fill="#1F1F1F"/>
    </g>
    <defs>
        <clipPath id="clip0_113_1251">
            <rect width="26" height="26" rx="10" fill="white"/>
        </clipPath>
    </defs>
</svg>